<?xml version="1.0" encoding="UTF-8" standalone="no"?>
<!-- Created with Inkscape (http://www.inkscape.org/) -->
<svg id="svg2" xmlns:rdf="http://www.w3.org/1999/02/22-rdf-syntax-ns#" xmlns="http://www.w3.org/2000/svg" height="20" width="25" version="1.1" xmlns:cc="http://creativecommons.org/ns#" xmlns:xlink="http://www.w3.org/1999/xlink" viewBox="0 0 24.999999 19.999999" xmlns:dc="http://purl.org/dc/elements/1.1/">
 <title id="title4212">Wilber icon</title>
 <defs id="defs4">
  <linearGradient id="linearGradient8939" y2="31.57" xlink:href="#linearGradient8524" gradientUnits="userSpaceOnUse" y1="23.362" x2="5.9846" x1="6.3052"/>
  <linearGradient id="linearGradient8935" y2="46.986" xlink:href="#linearGradient8524" gradientUnits="userSpaceOnUse" y1="19.111" x2="39.525" x1="14.969"/>
  <linearGradient id="linearGradient8524">
   <stop id="stop8526" stop-color="#fff" offset="0"/>
   <stop id="stop8528" stop-color="#fff" stop-opacity="0" offset="1"/>
  </linearGradient>
 </defs>
 <metadata id="metadata7">
  <rdf:RDF>
   <cc:Work rdf:about="">
    <dc:format>image/svg+xml</dc:format>
    <dc:type rdf:resource="http://purl.org/dc/dcmitype/StillImage"/>
    <dc:title>Wilber icon</dc:title>
    <cc:license rdf:resource="http://creativecommons.org/licenses/by-sa/3.0/"/>
    <dc:date>2015-11-16</dc:date>
    <dc:creator>
     <cc:Agent>
      <dc:title>Aryeom Han</dc:title>
     </cc:Agent>
    </dc:creator>
    <dc:rights>
     <cc:Agent>
      <dc:title>Creative Commons by-SA</dc:title>
     </cc:Agent>
    </dc:rights>
   </cc:Work>
   <cc:License rdf:about="http://creativecommons.org/licenses/by-sa/3.0/">
    <cc:permits rdf:resource="http://creativecommons.org/ns#Reproduction"/>
    <cc:permits rdf:resource="http://creativecommons.org/ns#Distribution"/>
    <cc:requires rdf:resource="http://creativecommons.org/ns#Notice"/>
    <cc:requires rdf:resource="http://creativecommons.org/ns#Attribution"/>
    <cc:permits rdf:resource="http://creativecommons.org/ns#DerivativeWorks"/>
    <cc:requires rdf:resource="http://creativecommons.org/ns#ShareAlike"/>
   </cc:License>
  </rdf:RDF>
 </metadata>
 <g id="layer1" transform="translate(.00023223 -1032.4)">
  <path id="path8891" xlink:href="#path4323" stroke="url(#linearGradient8935)" stroke-width=".98364" fill="none"  stroke-miterlimit="10" opacity=".18539" d="m36.961 11.824c-0.56181 0.93015-1.3989 2.0445-2.6875 3.1113-2.6319 2.179-7.0467 4.1741-14.277 4.3555-4.2275 0.10513-6.9514-1.9528-8.623-3.7695l-0.11133 4.4805c0.13624 0.41961 0.39753 1.3954-0.08008 2.7227-0.51369 1.4276-2.1595 2.8683-4.9668 3.9766 0.24899 0.52272 0.48184 1.073 1.2402 1.8145 1.028 1.0049 2.4766 2.0822 4.1758 3.0566 3.3984 1.9489 7.8055 3.4854 11.91 3.5547 4.1047 0.06929 7.8356-1.2248 10.416-4.9902 2.3802-3.4733 3.6894-9.3698 3.0039-18.312z"/>
  <path id="path8895" xlink:href="#path5198" stroke="url(#linearGradient8939)" stroke-width=".98364" fill="none"  transform="matrix(.80039 -.59948 .59948 .80039 -15.274 7.3278)" stroke-miterlimit="10" opacity=".28090" d="m6.0938 22.17c-0.79825 0-1.5648 0.44422-2.1992 1.3418-0.63437 0.89758-1.0684 2.2225-1.0684 3.707s0.43399 2.8095 1.0684 3.707c0.63437 0.89758 1.401 1.3418 2.1992 1.3418 0.79825 0 1.5773-0.44709 2.2188-1.3457 0.64147-0.89861 1.0801-2.2218 1.0801-3.7031s-0.43861-2.8045-1.0801-3.7031c-0.6416-0.899-1.4206-1.346-2.2188-1.346z"/>
  <g id="g4226" fill-rule="evenodd">
   <path id="path8887"  d="m6.0025 1034.4s2.1941 5.0442 6.6237 4.9286c9.2828-0.2443 10.936-5.7322 11.939-6.9881 4.1614 31.246-22.763 17.792-22.014 12.88 4.7742-1.4663 3.0735-2.0146 3.0735-2.0146z" fill="#fff"/>
   <path id="path8889"  d="m16.888 1045.9s0.59642 0.5191 0.94575 0.9926c-1.323 1.0721-3.5843 1.9358-8.0233 1.0042 2.2408 0.8302 4.1285 1.209 5.5868 1.114-0.88529 0.3088-2.0003 0.5332-3.437 0.608 3.2035 0.3116 5.5919-0.3129 6.4359-1.6239 0.2226 0.2507 0.4354 0.6802 0.64627 1.2312 0.14245-0.9434 0.48478-1.3973-0.05948-2.1347-0.54584-0.7393-2.0951-1.1914-2.0951-1.1914z"/>
   <ellipse id="path8893" transform="matrix(.79727 -.60362 .56649 .82407 0 0)" cy="835.87" stroke-width=".33526"  rx="2.902" ry="4.1491" stroke-miterlimit="10" stroke="#fff" cx="-589.57"/>
   <ellipse id="path8897"  rx="1.1644" ry="1.4664" cy="1043.2" cx="2.1226" fill="#fff"/>
   <ellipse id="path8899" cy="1042.1" stroke-width=".38033" fill="#fff"  rx="2.6244" ry="2.855" stroke-miterlimit="10" stroke="#000" cx="8.7606"/>
   <path id="path8907"  d="m9.4621 1041a1.7455 1.8319 0 0 0 -1.7457 1.832 1.7455 1.8319 0 0 0 1.7457 1.8304 1.7455 1.8319 0 0 0 1.7457 -1.8304 1.7455 1.8319 0 0 0 -1.7457 -1.832zm-0.65675 0.5011a0.69004 0.72417 0 0 1 0.68859 0.7244 0.69004 0.72417 0 0 1 -0.68859 0.7244 0.69004 0.72417 0 0 1 -0.69024 -0.7244 0.69004 0.72417 0 0 1 0.69024 -0.7244z"/>
   <ellipse id="path8901" cy="1042.7" stroke-width=".33508" fill="#fff"  rx="3.144" ry="3.2995" stroke-miterlimit="10" stroke="#000" cx="14.531"/>
   <path id="path8903"  d="m15.302 1040.8a2.2349 2.3454 0 0 0 -2.2344 2.345 2.2349 2.3454 0 0 0 2.2344 2.3465 2.2349 2.3454 0 0 0 2.236 -2.3465 2.2349 2.3454 0 0 0 -2.236 -2.345zm-0.6185 0.4733a1.048 1.0998 0 0 1 1.0475 1.101 1.048 1.0998 0 0 1 -1.0475 1.0993 1.048 1.0998 0 0 1 -1.0475 -1.0993 1.048 1.0998 0 0 1 1.0475 -1.101z"/>
  </g>
 </g>
</svg>
