<?xml version="1.0" encoding="UTF-8" standalone="no"?>
<svg
   xmlns:dc="http://purl.org/dc/elements/1.1/"
   xmlns:cc="http://creativecommons.org/ns#"
   xmlns:rdf="http://www.w3.org/1999/02/22-rdf-syntax-ns#"
   xmlns:svg="http://www.w3.org/2000/svg"
   xmlns="http://www.w3.org/2000/svg"
   version="1.1"
   id="svg4759"
   viewBox="0 0 200 200"
   height="200"
   width="200">
  <defs
     id="defs4761">
    <clipPath
       id="clipPath7948"
       clipPathUnits="userSpaceOnUse">
      <path
         id="path7950"
         d="m 126,141.25 c 13.63429,-0.0287 30.69591,-3.48571 43.875,-22 L 254.5,182 l 3.5,78.5 -99,-51 -33,-68.25 z"
         style="display:inline;overflow:visible;visibility:visible;opacity:0.57831325;fill:#000000;fill-opacity:1;fill-rule:evenodd;stroke:none;stroke-width:20;stroke-linecap:round;stroke-linejoin:miter;stroke-miterlimit:4;stroke-dasharray:none;stroke-dashoffset:0;stroke-opacity:1;marker:none;marker-start:none;marker-mid:none;marker-end:none;enable-background:accumulate" />
    </clipPath>
    <filter
       height="1.0467743"
       y="-0.023387156"
       width="1.0492578"
       x="-0.024628904"
       id="filter6822"
       style="color-interpolation-filters:sRGB">
      <feGaussianBlur
         id="feGaussianBlur6824"
         stdDeviation="7.0511287" />
    </filter>
  </defs>
  <metadata
     id="metadata4764">
    <rdf:RDF>
      <cc:Work
         rdf:about="">
        <dc:format>image/svg+xml</dc:format>
        <dc:type
           rdf:resource="http://purl.org/dc/dcmitype/StillImage" />
        <dc:title></dc:title>
      </cc:Work>
    </rdf:RDF>
  </metadata>
  <g
     transform="translate(0,-852.36219)"
     id="layer1">
    <g
       transform="translate(754.4786,-127.86459)"
       id="g6081"
       style="enable-background:new">
      <g
         style="display:none"
         id="layer3">
        <rect
           y="20"
           x="20"
           height="256"
           width="256"
           id="rect6282"
           style="display:inline;overflow:visible;visibility:visible;fill:#eeeeec;fill-opacity:1;fill-rule:nonzero;stroke:none;stroke-width:2;marker:none;enable-background:accumulate" />
        <rect
           style="display:inline;overflow:visible;visibility:visible;fill:#eeeeec;fill-opacity:1;fill-rule:nonzero;stroke:none;stroke-width:2;marker:none;enable-background:accumulate"
           id="rect6284"
           width="48"
           height="48"
           x="296.0625"
           y="39.99633" />
        <rect
           y="115.99633"
           x="303"
           height="32"
           width="32"
           id="rect6592"
           style="display:inline;overflow:visible;visibility:visible;fill:#eeeeec;fill-opacity:1;fill-rule:nonzero;stroke:none;stroke-width:2;marker:none;enable-background:accumulate" />
        <rect
           style="display:inline;overflow:visible;visibility:visible;fill:#eeeeec;fill-opacity:1;fill-rule:nonzero;stroke:none;stroke-width:2;marker:none;enable-background:accumulate"
           id="rect6749"
           width="22"
           height="22"
           x="303"
           y="167.05884" />
        <rect
           y="209"
           x="303"
           height="16"
           width="16"
           id="rect6833"
           style="display:inline;overflow:visible;visibility:visible;fill:#eeeeec;fill-opacity:1;fill-rule:nonzero;stroke:none;stroke-width:2;marker:none;enable-background:accumulate" />
        <rect
           y="165.95343"
           x="301.95709"
           height="24"
           width="24"
           id="rect5028"
           style="display:inline;overflow:visible;visibility:visible;fill:#eeeeec;fill-opacity:1;fill-rule:nonzero;stroke:none;stroke-width:2;marker:none;enable-background:accumulate" />
        <text
           xml:space="preserve"
           style="font-style:normal;font-variant:normal;font-weight:normal;font-stretch:normal;font-size:20px;line-height:125%;font-family:'Trebuchet MS';-inkscape-font-specification:'Trebuchet MS';text-align:start;writing-mode:lr-tb;text-anchor:start;display:inline;fill:#000000;fill-opacity:1;stroke:none;enable-background:new"
           x="21"
           y="-18.999996"
           id="context"><tspan
             id="tspan16843"
             x="21"
             y="-18.999996">apps</tspan></text>
        <text
           xml:space="preserve"
           style="font-style:normal;font-variant:normal;font-weight:normal;font-stretch:normal;font-size:20px;line-height:125%;font-family:'Trebuchet MS';-inkscape-font-specification:'Trebuchet MS';text-align:start;writing-mode:lr-tb;text-anchor:start;display:inline;fill:#000000;fill-opacity:1;stroke:none;enable-background:new"
           x="159"
           y="-18.999996"
           id="icon-name"><tspan
             id="tspan16847"
             x="159"
             y="-18.999996">gimp</tspan></text>
      </g>
      <g
         style="display:inline"
         id="layer1-0">
        <g
           id="g6814"
           transform="translate(-291.24202,24.643982)" />
        <g
           id="g6222"
           transform="translate(24.1276,-219.80931)">
          <g
             transform="translate(72.142857,219.28571)"
             id="g6466"
             clip-path="url(#clipPath7948)">
            <g
               transform="matrix(-0.1899103,0.5086471,-0.5087283,-0.1899408,276.0542,112.28478)"
               id="g6474" />
          </g>
        </g>
      </g>
    </g>
    <g
       transform="matrix(0.70710678,-0.70710678,0.70710678,0.70710678,-931.09662,1050.1545)"
       id="g6778">
      <rect
         transform="matrix(0.2654826,0,0,0.25209742,483.7639,489.98938)"
         style="color:#000000;display:inline;overflow:visible;visibility:visible;opacity:1;fill:#000000;fill-opacity:1;stroke:#000000;stroke-width:2;stroke-linecap:butt;stroke-linejoin:round;stroke-miterlimit:10;stroke-dasharray:none;stroke-dashoffset:0;stroke-opacity:1;marker:none;filter:url(#filter6822);enable-background:accumulate"
         id="rect6796"
         width="815.71429"
         height="164.28572"
         x="775.12079"
         y="329.50507" />
      <rect
         y="570.83026"
         x="689.59241"
         height="43.59594"
         width="216.46333"
         id="rect6780"
         style="color:#000000;display:inline;overflow:visible;visibility:visible;opacity:1;fill:#ffffff;fill-opacity:1;stroke:#000000;stroke-width:0.53073317;stroke-linecap:butt;stroke-linejoin:round;stroke-miterlimit:10;stroke-dasharray:none;stroke-dashoffset:0;stroke-opacity:1;marker:none;enable-background:accumulate" />
      <g
         transform="matrix(1.8423234,0,0,1.8423234,-672.02566,-446.74437)"
         id="g6782">
        <g
           transform="matrix(0.14403908,0,0,0.14403908,627.42881,504.646)"
           id="text6784"
           style="font-style:normal;font-variant:normal;font-weight:normal;font-stretch:normal;font-size:62.5px;line-height:125%;font-family:Questrial;-inkscape-font-specification:'Questrial, Normal';text-align:start;letter-spacing:0px;word-spacing:0px;writing-mode:lr-tb;text-anchor:start;fill:#777777;fill-opacity:1;stroke:none;stroke-width:1px;stroke-linecap:butt;stroke-linejoin:miter;stroke-opacity:1">
          <path
             id="path6959"
             d="m 1044.0433,383.3833 q 4.4375,0 7.75,-2.25 3.375,-2.25 5,-6.0625 l 4.9375,0 q -2.0625,5.875 -6.8125,9.25 -5.0625,3.625 -11.9375,3.625 -9.0625,0 -14.6875,-6.1875 -5.3125,-5.9375 -5.3125,-15 0,-9.0625 5.3125,-15 5.625,-6.1875 14.6875,-6.1875 6.875,0 11.9375,3.625 4.75,3.375 6.8125,9.25 l -4.9375,0 q -1.625,-3.8125 -5,-6.0625 -3.3125,-2.25 -7.75,-2.25 -4.4375,0 -7.375,1.3125 -2.9375,1.25 -4.9375,3.5 -4.0625,4.5625 -4.0625,11.8125 0,7.25 4.0625,11.8125 4.25,4.8125 12.3125,4.8125 z" />
          <path
             id="path6961"
             d="m 1081.6341,383.6958 q 6.3125,0 9.0625,-5.25 l 5.125,0 q -1.625,4.25 -5.1875,6.875 -3.5,2.625 -9.0625,2.625 -7.0625,0 -11.5,-4.6875 -4.3125,-4.5625 -4.3125,-11.4375 0,-6.9375 4.125,-11.4375 4.375,-4.6875 11.375,-4.6875 7,0 11.375,4.6875 4.125,4.5 4.125,11.4375 l 0,1.875 -26.1875,0 q 0.5,4.3125 3.4375,7.125 3,2.875 7.625,2.875 z m -0.375,-23.75 q -4.3125,0 -7.25,2.6875 -2.75,2.5625 -3.375,6.6875 l 21.25,0 q -0.625,-4.125 -3.375,-6.6875 -2.9375,-2.6875 -7.25,-2.6875 z" />
          <path
             id="path6963"
             d="m 1107.1741,387.4458 -4.6875,0 0,-43.75 4.6875,0 0,43.75 z" />
          <path
             id="path6965"
             d="m 1129.2415,383.6958 q 6.3125,0 9.0625,-5.25 l 5.125,0 q -1.625,4.25 -5.1875,6.875 -3.5,2.625 -9.0625,2.625 -7.0625,0 -11.5,-4.6875 -4.3125,-4.5625 -4.3125,-11.4375 0,-6.9375 4.125,-11.4375 4.375,-4.6875 11.375,-4.6875 7,0 11.375,4.6875 4.125,4.5 4.125,11.4375 l 0,1.875 -26.1875,0 q 0.5,4.3125 3.4375,7.125 3,2.875 7.625,2.875 z m -0.375,-23.75 q -4.3125,0 -7.25,2.6875 -2.75,2.5625 -3.375,6.6875 l 21.25,0 q -0.625,-4.125 -3.375,-6.6875 -2.9375,-2.6875 -7.25,-2.6875 z" />
          <path
             id="path6967"
             d="m 1154.7816,361.2583 q 3.8125,-5.5625 11.1875,-5.5625 6.75,0 10.9375,4.6875 4.1875,4.625 4.1875,11.4375 0,6.8125 -4.1875,11.4375 -4.1875,4.6875 -11.3125,4.6875 -7.0625,0 -10.8125,-5.5 l 0,5 -4.6875,0 0,-43.75 4.6875,0 0,17.5625 z m 10.5625,22.4375 q 5,0 8.125,-3.5 2.9375,-3.3125 2.9375,-8.375 0,-5.0625 -2.9375,-8.375 -3.125,-3.5 -8.125,-3.5 -5.0625,0 -8,3.5 -2.8125,3.3125 -2.8125,8.375 0,5.0625 2.8125,8.375 2.9375,3.5 8,3.5 z" />
          <path
             id="path6969"
             d="m 1203.7034,355.6958 0,4.6875 -0.5625,0 q -5.0625,0 -8.25,4.0625 -3,3.875 -3,9.25 l 0,13.75 -4.6875,0 0,-31.25 4.6875,0 0,7.6875 q 1.5,-4.875 6.5,-7.1875 2.0625,-1 5,-1 l 0.3125,0 z" />
          <path
             id="path6971"
             d="m 1232.3914,382.4458 q -3.75,5.5 -11.1875,5.5 -6.75,0 -11,-4.6875 -4.125,-4.625 -4.125,-11.4375 0,-6.8125 4.125,-11.4375 4.25,-4.6875 11.3125,-4.6875 7.0625,0 10.875,5.5625 l 0,-5.0625 4.6875,0 0,31.25 -4.6875,0 0,-5 z m -10.5625,1.25 q 5.0625,0 8,-3.5 2.8125,-3.3125 2.8125,-8.375 0,-5.0625 -2.8125,-8.375 -2.9375,-3.5 -8,-3.5 -5,0 -8.125,3.5 -2.9375,3.3125 -2.9375,8.375 0,5.0625 2.9375,8.375 3.125,3.5 8.125,3.5 z" />
          <path
             id="path6973"
             d="m 1248.6839,387.4458 0,-27.125 -6.375,0 0,-4.125 6.375,0 0,-11.1875 4.6875,0 0,11.1875 7.1875,0 0,4.125 -7.1875,0 0,27.125 -4.6875,0 z" />
          <path
             id="path6975"
             d="m 1265.6946,356.1958 4.6875,0 0,31.25 -4.6875,0 0,-31.25 z m 4.875,-11.375 0,6.125 -5.0625,0 0,-6.125 5.0625,0 z" />
          <path
             id="path6977"
             d="m 1283.1995,356.1958 0,4.875 q 1.6875,-2.25 4.125,-3.8125 2.4375,-1.5625 5.5625,-1.5625 3.125,0 5.375,0.875 2.25,0.875 3.9375,2.625 3.875,3.8125 3.875,10.0625 l 0,18.1875 -4.6875,0 0,-18.0625 q 0,-4.3125 -2.4375,-6.875 -2.4375,-2.5625 -6.3125,-2.5625 -3.9375,0 -6.6875,2.625 -2.75,2.6875 -2.75,6.875 l 0,18 -4.6875,0 0,-31.25 4.6875,0 z" />
          <path
             id="path6979"
             d="m 1338.2874,361.1958 0,-5 4.6875,0 0,30.3125 q 0,6.75 -3.875,10.25 -3.8125,3.5625 -10.3125,3.5625 -6.5,0 -10.1875,-2.5 -3.625,-2.5 -4.9375,-6.625 l 5.1875,0 q 2,4.875 9.125,4.875 5.4375,0 7.875,-2.5 2.4375,-2.5 2.4375,-7.375 l 0,-4.3125 q -3.8125,5.5625 -11.1875,5.5625 -6.75,0 -11,-4.625 -4.125,-4.5 -4.125,-11.25 0,-6.75 4.125,-11.25 4.25,-4.625 11.3125,-4.625 7.125,0 10.875,5.5 z m -10.5625,22 q 2.5625,0 4.5625,-0.875 2,-0.9375 3.4375,-2.5 2.8125,-3.25 2.8125,-8.25 0,-5 -2.8125,-8.25 -3.0625,-3.375 -8,-3.375 -5.0625,0 -8.125,3.375 -2.9375,3.3125 -2.9375,8.25 0,4.9375 2.9375,8.25 3.0625,3.375 8.125,3.375 z" />
        </g>
        <g
           id="text6788"
           style="font-style:normal;font-variant:normal;font-weight:normal;font-stretch:normal;font-size:112.48210907px;line-height:125%;font-family:'League Gothic';-inkscape-font-specification:'League Gothic, Normal';text-align:start;letter-spacing:0px;word-spacing:0px;writing-mode:lr-tb;text-anchor:start;fill:#404040;fill-opacity:1;stroke:none;stroke-width:1px;stroke-linecap:butt;stroke-linejoin:miter;stroke-opacity:1">
          <path
             id="path6982"
             d="m 774.82662,565.91264 0,-0.82629 c 0,-0.79389 0.11342,-1.57159 0.45365,-2.13865 0.34025,-0.56706 0.92351,-0.9397 1.87943,-0.9397 0.89109,0 1.49056,0.34024 1.847,0.85869 0.35643,0.53466 0.48606,1.27995 0.48606,2.10624 0,1.21514 -0.45366,2.6571 -1.02072,4.00185 -0.58326,1.36095 -1.26374,2.57608 -1.7174,3.33757 l 2.77052,0 0,1.7336 -4.74714,0 0,-1.7336 c 0.53466,-0.82629 1.02072,-1.66879 1.45817,-2.51127 0.37264,-0.71288 0.72908,-1.52297 1.00451,-2.34927 0.27544,-0.82629 0.48605,-1.63638 0.50225,-2.36546 0,-0.32405 -0.0162,-0.69668 -0.0972,-0.97211 -0.081,-0.27543 -0.22682,-0.48606 -0.48604,-0.48606 -0.24304,0 -0.38885,0.17822 -0.46986,0.43745 -0.081,0.27543 -0.11342,0.63187 -0.11342,1.02072 l 0,0.82629 -1.7498,0 z" />
          <path
             id="path6984"
             d="m 785.33224,571.59948 c -0.0162,0.48606 -0.11341,0.9235 -0.29163,1.29615 -0.14581,0.32403 -0.37265,0.63187 -0.69668,0.87489 -0.32403,0.25923 -0.76149,0.40504 -1.34475,0.40504 -0.58327,0 -1.03692,-0.14581 -1.36095,-0.40504 -0.32404,-0.24302 -0.53466,-0.55086 -0.68048,-0.87489 -0.17822,-0.37265 -0.27543,-0.81009 -0.29162,-1.29615 l 0,-7.0154 c 0.0162,-0.46984 0.1134,-0.9073 0.29162,-1.27993 0.14582,-0.32404 0.35644,-0.64807 0.68048,-0.89111 0.32403,-0.24302 0.77768,-0.40504 1.36095,-0.40504 0.58326,0 1.02072,0.16202 1.34475,0.40504 0.32403,0.24304 0.55087,0.56707 0.69668,0.89111 0.17822,0.37263 0.27543,0.81009 0.29163,1.27993 l 0,7.0154 z m -1.7498,-7.0154 c 0,-0.32403 -0.0648,-0.55086 -0.22682,-0.74527 -0.081,-0.081 -0.21062,-0.12962 -0.35644,-0.12962 -0.30784,0 -0.45365,0.22683 -0.51845,0.43745 -0.0486,0.12962 -0.0648,0.27543 -0.0648,0.43744 l 0,7.0154 c 0,0.34023 0.081,0.56706 0.24304,0.74528 0.081,0.081 0.19441,0.12961 0.34023,0.12961 0.30783,0 0.45366,-0.19442 0.51846,-0.43745 0.0486,-0.11341 0.0648,-0.25922 0.0648,-0.43744 l 0,-7.0154 z" />
          <path
             id="path6986"
             d="m 791.06465,565.94504 0.0486,0.11341 0.0324,0 0.0486,-0.11341 0.87491,-3.80743 1.71739,0 -1.78221,6.83717 0,5.07117 -1.74979,0 0,-5.07117 -1.78221,-6.83717 1.71741,0 0.87489,3.80743 z" />
          <path
             id="path6988"
             d="m 794.54475,562.13761 4.00185,0 0,1.79841 -2.25205,0 0,3.12695 1.62018,0 0,1.91181 -1.62018,0 0,3.27277 2.25205,0 0,1.7984 -4.00185,0 0,-11.90834 z" />
          <path
             id="path6990"
             d="m 799.05848,574.04595 1.7984,-11.90834 2.13864,0 1.7984,11.90834 -1.70118,0 -0.32405,-2.43027 -1.68498,0 -0.32405,2.43027 -1.70118,0 z m 2.96493,-8.0361 -0.0486,-0.30784 -0.0972,0 -0.0486,0.30784 -0.50225,3.75882 1.19894,0 -0.50226,-3.75882 z" />
          <path
             id="path6992"
             d="m 808.71552,574.04595 -0.9073,-5.02257 -0.46986,0 0,5.02257 -1.74979,0 0,-11.90834 1.74979,0 c 2.09004,0 2.98113,1.18273 2.98113,3.43478 0,1.18274 -0.30782,2.25207 -0.9721,2.70572 l 1.11793,5.76784 -1.7498,0 z m -1.37716,-6.64275 c 0.24304,0 0.56707,-0.0324 0.8263,-0.25923 0.25922,-0.22682 0.46985,-0.66428 0.46985,-1.50676 0,-0.8425 -0.21063,-1.29615 -0.46985,-1.52297 -0.25923,-0.22683 -0.58326,-0.24304 -0.8263,-0.24304 l 0,3.532 z" />
          <path
             id="path6994"
             d="m 814.34287,565.32937 c 0,-0.38885 -0.0162,-0.8263 -0.12961,-1.16653 -0.11342,-0.32403 -0.29164,-0.55086 -0.56707,-0.55086 -0.45365,0.0162 -0.59947,0.48606 -0.59947,1.18273 0,0.40505 0.17823,0.82629 0.43746,1.27995 0.25922,0.45365 0.59946,0.9235 0.93969,1.42575 0.40506,0.59948 0.81009,1.21514 1.11793,1.81461 0.30784,0.59947 0.51846,1.21514 0.51846,1.86321 0,0.79389 -0.12961,1.53918 -0.50225,2.09003 -0.37265,0.55086 -0.97212,0.9073 -1.92802,0.9073 -1.11793,0 -1.7498,-0.42124 -2.10624,-1.06932 -0.35644,-0.64807 -0.43745,-1.50676 -0.43745,-2.39786 l 1.71739,-0.16202 c 0,0.50225 0.0162,1.0045 0.14583,1.37715 0.1134,0.38884 0.30782,0.64807 0.68047,0.64807 0.51845,0 0.71288,-0.55086 0.71288,-1.31234 0,-0.38885 -0.19443,-0.8425 -0.45366,-1.31235 -0.14581,-0.22682 -0.29163,-0.46986 -0.45365,-0.71288 -0.34023,-0.48606 -0.71287,-1.03692 -1.10172,-1.63639 -0.38884,-0.59946 -0.68047,-1.21512 -0.85869,-1.84701 -0.0972,-0.30782 -0.14583,-0.63187 -0.14583,-0.9559 0,-0.64807 0.14583,-1.34475 0.51847,-1.87941 0.37265,-0.51845 0.9397,-0.8911 1.76599,-0.9073 1.05313,-0.0162 1.6688,0.42124 2.00903,1.05311 0.34024,0.64808 0.43745,1.44196 0.43745,2.10624 l -1.71739,0.16202 z" />
        </g>
        <g
           transform="matrix(0.14403908,0,0,0.14403908,627.42881,504.646)"
           id="text6792"
           style="font-style:normal;font-variant:normal;font-weight:normal;font-stretch:normal;font-size:108.16521454px;line-height:125%;font-family:'League Gothic';-inkscape-font-specification:'League Gothic, Normal';text-align:start;letter-spacing:0px;word-spacing:0px;writing-mode:lr-tb;text-anchor:start;fill:#404040;fill-opacity:1;stroke:none;stroke-width:1px;stroke-linecap:butt;stroke-linejoin:miter;stroke-opacity:1">
          <path
             id="path6956"
             d="m 1322.6264,403.21179 12.6553,0 -2.9205,58.08472 -6.8144,0 -2.9204,-58.08472 z m 0.649,67.4951 11.3573,0 0,12.00634 -11.3573,0 0,-12.00634 z" />
        </g>
      </g>
    </g>
  </g>
</svg>
