<?xml version="1.0" encoding="UTF-8" standalone="no"?>
<!-- Created with Inkscape (http://www.inkscape.org/) -->
<svg id="svg2" xmlns:rdf="http://www.w3.org/1999/02/22-rdf-syntax-ns#" xmlns="http://www.w3.org/2000/svg" height="348" width="600" version="1.1" xmlns:cc="http://creativecommons.org/ns#" xmlns:xlink="http://www.w3.org/1999/xlink" viewBox="0 0 600.00001 348.00001" xmlns:dc="http://purl.org/dc/elements/1.1/">
 <metadata id="metadata7">
  <rdf:RDF>
   <cc:Work rdf:about="">
    <dc:format>image/svg+xml</dc:format>
    <dc:type rdf:resource="http://purl.org/dc/dcmitype/StillImage"/>
    <dc:title/>
   </cc:Work>
  </rdf:RDF>
 </metadata>
 <g id="layer1" transform="translate(0 -704.36)">
  <g id="g4144" transform="matrix(1.25 0 0 -1.25 -50.87 660.02)">
   <g id="g5346" transform="matrix(1.625 0 0 1.625 -363.86 -228.54)">
    <g stroke-linejoin="round" fill="#fff">
     <g fill-rule="evenodd" stroke-width="0.8px">
      <g stroke="#404040">
       <path id="path5816-3" d="m323.01-37.494-73.646 42.52 0.00001-28.346 73.646-42.52z"/>
       <path id="path4567" d="m396.65-80.014-73.646 42.52 0.00001-28.346 73.646-42.52z"/>
       <path id="path5818-2" d="m396.65-80.014 49.098 28.346 0.00001-28.346-49.098-28.346z"/>
       <path id="path4584" d="m445.75-51.667 49.098 28.346 0.00001-28.346-49.098-28.346z"/>
       <path id="path4586" d="m494.85-23.321 49.098 28.346 0.00001-28.346-49.098-28.346z"/>
      </g>
      <g stroke="#7f7f7f">
       <path id="path4589" d="m298.46-51.667-49.097 28.346 0.00001-28.346 49.097-28.346z" transform="translate(.0000066384 .0000062835)"/>
       <path id="path4591" d="m347.56-80.014-49.097 28.346 0.00001-28.346 49.097-28.346z"/>
       <path id="path4593" d="m396.65-108.36-49.097 28.346 0.00001-28.346 49.097-28.346z"/>
       <path id="path4595" d="m396.65-108.36 98.195 56.693 0.00001-28.346-98.195-56.693z"/>
       <path id="path4597" d="m494.85-51.667 49.098 28.346 0.00001-28.346-49.098-28.346z"/>
      </g>
      <g stroke="#000">
       <path id="path5762" d="m347.56 33.372-49.097 28.346 0.00001-28.346 49.097-28.346z"/>
       <path id="path5764" d="m347.56 33.372 98.195 56.693 0.00001-28.346-98.195-56.693z"/>
       <path id="path5766" d="m347.56 33.372-49.097 28.346 98.195 56.693 49.098-28.346z"/>
      </g>
     </g>
     <g id="g5768" transform="translate(49.097 -226.77)" stroke="#000">
      <path id="path5770"  d="m322.2 308.27a15.343 8.8583 0 0 0 -9.1797 1.7715h-6.1641v7.0859a15.343 8.8583 0 0 0 0 0.002 15.343 8.8583 0 0 0 15.344 8.8574 15.343 8.8583 0 0 0 15.342 -8.8574 15.343 8.8583 0 0 0 0 -0.002v-7.0859h-6.1699a15.343 8.8583 0 0 0 -9.1719 -1.7715z" transform="matrix(.8 0 0 -.8 40.696 528.02)"/>
      <ellipse id="ellipse5772"  rx="12.274" transform="scale(1,-1)" ry="7.0866" cy="-279.99" cx="298.46" stroke-width="0.8"/>
     </g>
     <g id="g5774" transform="translate(24.149 -212.2)" stroke="#000">
      <path id="path5776"  d="m322.2 308.27a15.343 8.8583 0 0 0 -9.1797 1.7715h-6.1641v7.0859a15.343 8.8583 0 0 0 0 0.002 15.343 8.8583 0 0 0 15.344 8.8574 15.343 8.8583 0 0 0 15.342 -8.8574 15.343 8.8583 0 0 0 0 -0.002v-7.0859h-6.1699a15.343 8.8583 0 0 0 -9.1719 -1.7715z" transform="matrix(.8 0 0 -.8 40.696 528.02)"/>
      <ellipse id="ellipse5778"  rx="12.274" ry="7.0866" transform="scale(1,-1)" cy="-279.99" cx="298.46" stroke-width="0.8"/>
     </g>
     <g id="g5780" transform="translate(49.124 -199.84)" stroke="#000">
      <path id="path5782"  d="m322.2 308.27a15.343 8.8583 0 0 0 -9.1797 1.7715h-6.1641v7.0859a15.343 8.8583 0 0 0 0 0.002 15.343 8.8583 0 0 0 15.344 8.8574 15.343 8.8583 0 0 0 15.342 -8.8574 15.343 8.8583 0 0 0 0 -0.002v-7.0859h-6.1699a15.343 8.8583 0 0 0 -9.1719 -1.7715z" transform="matrix(.8 0 0 -.8 40.696 528.02)"/>
      <ellipse id="ellipse5784"  rx="12.274" transform="scale(1,-1)" ry="7.0866" cy="-279.99" cx="298.46" stroke-width="0.8"/>
     </g>
     <g id="g5786" transform="translate(73.646 -212.6)" stroke="#000">
      <path id="path5788"  d="m322.2 308.27a15.343 8.8583 0 0 0 -9.1797 1.7715h-6.1641v7.0859a15.343 8.8583 0 0 0 0 0.002 15.343 8.8583 0 0 0 15.344 8.8574 15.343 8.8583 0 0 0 15.342 -8.8574 15.343 8.8583 0 0 0 0 -0.002v-7.0859h-6.1699a15.343 8.8583 0 0 0 -9.1719 -1.7715z" transform="matrix(.8 0 0 -.8 40.696 528.02)"/>
      <ellipse id="ellipse5790"  rx="12.274" ry="7.0866" transform="scale(1,-1)" cy="-279.99" cx="298.46" stroke-width="0.8"/>
     </g>
     <g id="g5798" transform="translate(73.246 -183.85)" stroke="#000">
      <path id="path5800"  d="m322.2 308.27a15.343 8.8583 0 0 0 -9.1797 1.7715h-6.1641v7.0859a15.343 8.8583 0 0 0 0 0.002 15.343 8.8583 0 0 0 15.344 8.8574 15.343 8.8583 0 0 0 15.342 -8.8574 15.343 8.8583 0 0 0 0 -0.002v-7.0859h-6.1699a15.343 8.8583 0 0 0 -9.1719 -1.7715z" transform="matrix(.8 0 0 -.8 40.696 528.02)"/>
      <ellipse id="ellipse5802"  rx="12.274" transform="scale(1,-1)" ry="7.0866" cy="-279.99" cx="298.46" stroke-width="0.8"/>
     </g>
     <g fill-rule="evenodd" stroke="#000" stroke-width="0.8px">
      <path id="path5816" d="m494.85 5.0257-73.646 42.52 0.00001-28.346 73.646-42.52z"/>
      <path id="path5818" d="m494.85 5.0257 49.098 28.346 0.00001-28.346-49.098-28.346z"/>
      <path id="path5820" d="m494.85 5.0257-73.646 42.52 49.097 28.346 73.646-42.52z"/>
      <path id="path5922" d="m347.56-23.321-98.195 56.693 0.00001-28.346 98.195-56.693z"/>
      <path id="path5924" d="m347.56-23.321 49.098 28.346 0.00001-28.346-49.098-28.346z"/>
      <path id="path5926" d="m347.56-23.321-98.195 56.693 49.097 28.346 98.195-56.693z"/>
     </g>
    </g>
    <g stroke="#000">
     <path id="path5858" stroke-linejoin="round" d="m298.46 33.372-49.097 28.346 0.00001-28.346 49.097-28.346z" fill-rule="evenodd" stroke-width="0.8px" fill="#fe9f00"/>
     <g id="g7002" transform="translate(98.196 -198.42)" stroke-miterlimit="0">
      <path id="path7004"  d="m460.29 751.18a15.343 8.8583 0 0 0 -9.1816 1.7715h-6.1621v7.0859a15.343 8.8583 0 0 0 15.344 8.8594 15.343 8.8583 0 0 0 15.344 -8.8594v-7.0859h-6.168a15.343 8.8583 0 0 0 -9.1758 -1.7715z" transform="matrix(.8 0 0 -.8 -69.774 882.35)" fill="none"/>
      <ellipse id="ellipse7006"  rx="12.274" transform="scale(1,-1)" ry="7.0866" cy="-279.99" cx="298.46" stroke-width="0.8" fill="#fff"/>
     </g>
     <path id="path5860" stroke-linejoin="round" d="m298.46 33.372 98.195 56.693 0.00001-28.346-98.195-56.693z" fill-rule="evenodd" stroke-width="0.8px" fill="#fe9f00"/>
     <g id="g7008" transform="translate(122.74 -184.25)" stroke-miterlimit="0">
      <path id="path7010"  d="m460.29 751.18a15.343 8.8583 0 0 0 -9.1816 1.7715h-6.1621v7.0859a15.343 8.8583 0 0 0 15.344 8.8594 15.343 8.8583 0 0 0 15.344 -8.8594v-7.0859h-6.168a15.343 8.8583 0 0 0 -9.1758 -1.7715z" transform="matrix(.8 0 0 -.8 -69.774 882.35)" fill="none"/>
      <ellipse id="ellipse7012"  rx="12.274" ry="7.0866" transform="scale(1,-1)" cy="-279.99" cx="298.46" stroke-width="0.8" fill="#fff"/>
     </g>
     <path id="path5862" stroke-linejoin="round" d="m347.56 61.719-49.097 28.346 49.097 28.346 49.098-28.346z" fill-rule="evenodd" stroke-width="0.8px" fill="#fe9f00"/>
     <g id="g7038" stroke-linejoin="round" transform="translate(24.149 -183.85)" fill="#fff">
      <path id="path7040"  d="m322.2 308.27a15.343 8.8583 0 0 0 -9.1797 1.7715h-6.1641v7.0859a15.343 8.8583 0 0 0 0 0.002 15.343 8.8583 0 0 0 15.344 8.8574 15.343 8.8583 0 0 0 15.342 -8.8574 15.343 8.8583 0 0 0 0 -0.002v-7.0859h-6.1699a15.343 8.8583 0 0 0 -9.1719 -1.7715z" transform="matrix(.8 0 0 -.8 40.696 528.02)"/>
      <ellipse id="ellipse7042"  rx="12.274" ry="7.0866" transform="scale(1,-1)" cy="-279.99" cx="298.46" stroke-width="0.8"/>
     </g>
     <g id="g5870" stroke-linejoin="round" transform="translate(24.149 -183.85)" fill="#fe9f00">
      <path id="path5872"  d="m322.2 308.27a15.343 8.8583 0 0 0 -9.1797 1.7715h-6.1641v7.0859a15.343 8.8583 0 0 0 0 0.002 15.343 8.8583 0 0 0 15.344 8.8574 15.343 8.8583 0 0 0 15.342 -8.8574 15.343 8.8583 0 0 0 0 -0.002v-7.0859h-6.1699a15.343 8.8583 0 0 0 -9.1719 -1.7715z" transform="matrix(.8 0 0 -.8 40.696 528.02)"/>
      <ellipse id="ellipse5874"  rx="12.274" ry="7.0866" transform="scale(1,-1)" cy="-279.99" cx="298.46" stroke-width="0.8"/>
     </g>
    </g>
    <g id="g5738">
     <g stroke-linejoin="round" fill-rule="evenodd" stroke="#000" stroke-width="0.8px" fill="#fff">
      <path id="path5954" d="m396.65-51.667-49.097 28.346v-28.346l49.097-28.346z"/>
      <path id="path5956" d="m396.65-51.667 98.195 56.693 0.00001-28.346-98.195-56.693z"/>
      <path id="path5958" d="m396.65-51.667-49.097 28.346 98.195 56.693 49.097-28.346z"/>
     </g>
     <g id="g5519" transform="translate(132.56 -321.73)">
      <path id="path5507"  d="m429.6 698.03v8.8594a15.343 8.8583 0 0 0 15.342 8.8574 15.343 8.8583 0 0 0 15.344 -8.8574v-8.8594h-15.344-15.342z" transform="matrix(.8 0 0 -.8 -57.499 839.83)" stroke="#000" stroke-miterlimit="0" fill="#fff"/>
      <ellipse id="ellipse5513"  rx="12.274" ry="7.0866" transform="scale(1,-1)" cy="-281.4" cx="298.46" stroke-miterlimit="0" stroke="#000" stroke-width="0.8" fill="#fff"/>
     </g>
     <use id="use5527" xlink:href="#g5519" transform="translate(-9.8203 24.094)" height="100%" width="100%" y="0" x="0" fill="#ffffff"/>
     <g stroke="#000" stroke-miterlimit="0" fill="#fff">
      <g id="use5533" transform="translate(147.29 -283.46)">
       <path id="path5663"  d="m429.6 698.03v8.8594a15.343 8.8583 0 0 0 15.342 8.8574 15.343 8.8583 0 0 0 15.344 -8.8574v-8.8594h-15.344-15.342z" transform="matrix(.8 0 0 -.8 -57.499 839.83)"/>
       <ellipse id="ellipse5665"  rx="12.274" transform="scale(1,-1)" ry="7.0866" cy="-281.4" cx="298.46" stroke-width="0.8"/>
       <g id="g5673">
        <path id="path5669"  d="m429.6 698.03v8.8594a15.343 8.8583 0 0 0 15.342 8.8574 15.343 8.8583 0 0 0 15.344 -8.8574v-8.8594h-15.344-15.342z" transform="matrix(.8 0 0 -.8 -57.499 839.83)"/>
        <ellipse id="ellipse5671"  rx="12.274" transform="scale(1,-1)" ry="7.0866" cy="-281.4" cx="298.46" stroke-width="0.8"/>
       </g>
      </g>
      <ellipse id="path6704"  rx="12.274" ry="7.0866" transform="scale(1,-1)" cy="37.494" cx="396.65" stroke-width="0.8"/>
      <ellipse id="ellipse6706"  rx="12.274" transform="scale(1,-1)" ry="7.0866" cy="37.494" cx="396.65" stroke-width="0.8"/>
     </g>
    </g>
    <g stroke="#000">
     <path id="path6010" stroke-linejoin="round" d="m298.46 61.719-49.097 28.346 0.00001-28.346 49.097-28.346z" fill-rule="evenodd" stroke-width="0.8px" fill="#00befe"/>
     <g id="g7044" transform="translate(49.098 -198.42)" stroke-miterlimit="0" fill="#fe9f00">
      <path id="path7046"  d="m460.29 751.18a15.343 8.8583 0 0 0 -9.1816 1.7715h-6.1621v7.0859a15.343 8.8583 0 0 0 15.344 8.8594 15.343 8.8583 0 0 0 15.344 -8.8594v-7.0859h-6.168a15.343 8.8583 0 0 0 -9.1758 -1.7715z" transform="matrix(.8 0 0 -.8 -69.774 882.35)"/>
      <ellipse id="ellipse7048"  rx="12.274" ry="7.0866" transform="scale(1,-1)" cy="-279.99" cx="298.46" stroke-width="0.8"/>
     </g>
     <path id="path6012" stroke-linejoin="round" d="m298.46 61.719 49.098 28.346 0.00001-28.346-49.098-28.346z" fill-rule="evenodd" stroke-width="0.8px" fill="#00befe"/>
     <g id="g7050" transform="translate(73.647 -184.25)" stroke-miterlimit="0" fill="#fe9f00">
      <path id="path7052"  d="m460.29 751.18a15.343 8.8583 0 0 0 -9.1816 1.7715h-6.1621v7.0859a15.343 8.8583 0 0 0 15.344 8.8594 15.343 8.8583 0 0 0 15.344 -8.8594v-7.0859h-6.168a15.343 8.8583 0 0 0 -9.1758 -1.7715z" transform="matrix(.8 0 0 -.8 -69.774 882.35)"/>
      <ellipse id="ellipse7054"  rx="12.274" transform="scale(1,-1)" ry="7.0866" cy="-279.99" cx="298.46" stroke-width="0.8"/>
     </g>
     <path id="path6014" stroke-linejoin="round" d="m298.46 61.719-49.097 28.346 49.097 28.346 49.098-28.346z" fill-rule="evenodd" stroke-width="0.8px" fill="#00befe"/>
    </g>
    <g stroke="#000" fill="#fff">
     <g id="g7056" transform="translate(49.098 -170.08)" stroke-miterlimit="0">
      <path id="path7058"  d="m460.29 751.18a15.343 8.8583 0 0 0 -9.1816 1.7715h-6.1621v7.0859a15.343 8.8583 0 0 0 15.344 8.8594 15.343 8.8583 0 0 0 15.344 -8.8594v-7.0859h-6.168a15.343 8.8583 0 0 0 -9.1758 -1.7715z" transform="matrix(.8 0 0 -.8 -69.774 882.35)" fill="none"/>
      <ellipse id="ellipse7060"  rx="12.274" ry="7.0866" transform="scale(1,-1)" cy="-279.99" cx="298.46" stroke-width="0.8" fill="#fe9f00"/>
     </g>
     <g id="g7020" transform="translate(98.196 -170.08)" stroke-miterlimit="0">
      <path id="path7022"  d="m460.29 751.18a15.343 8.8583 0 0 0 -9.1816 1.7715h-6.1621v7.0859a15.343 8.8583 0 0 0 15.344 8.8594 15.343 8.8583 0 0 0 15.344 -8.8594v-7.0859h-6.168a15.343 8.8583 0 0 0 -9.1758 -1.7715z" transform="matrix(.8 0 0 -.8 -69.774 882.35)" fill="none"/>
      <ellipse id="ellipse7024"  rx="12.274" transform="scale(1,-1)" ry="7.0866" cy="-279.99" cx="298.46" stroke-width="0.8" fill="#fff"/>
     </g>
     <g stroke-linejoin="round" fill-rule="evenodd" stroke-width="0.8px">
      <path id="path6718" d="m396.65-51.667-49.097 28.346v-28.346l49.097-28.346z"/>
      <path id="path6720" d="m396.65-51.667 98.195 56.693 0.00001-28.346-98.195-56.693z"/>
      <path id="path6722" d="m396.65-51.667-49.097 28.346 98.195 56.693 49.097-28.346z"/>
     </g>
     <g id="g6814" transform="translate(98.196 -311.81)" stroke-miterlimit="0">
      <path id="path6828"  d="m460.29 751.18a15.343 8.8583 0 0 0 -9.1816 1.7715h-6.1621v7.0859a15.343 8.8583 0 0 0 15.344 8.8594 15.343 8.8583 0 0 0 15.344 -8.8594v-7.0859h-6.168a15.343 8.8583 0 0 0 -9.1758 -1.7715z" transform="matrix(.8 0 0 -.8 -69.774 882.35)" fill="none"/>
      <ellipse id="ellipse6830"  rx="12.274" ry="7.0866" transform="scale(1,-1)" cy="-279.99" cx="298.46" stroke-width="0.8" fill="#fff"/>
     </g>
     <g id="g6843" transform="translate(73.647 -297.64)" stroke-miterlimit="0">
      <path id="path6845"  d="m460.29 751.18a15.343 8.8583 0 0 0 -9.1816 1.7715h-6.1621v7.0859a15.343 8.8583 0 0 0 15.344 8.8594 15.343 8.8583 0 0 0 15.344 -8.8594v-7.0859h-6.168a15.343 8.8583 0 0 0 -9.1758 -1.7715z" transform="matrix(.8 0 0 -.8 -69.774 882.35)" fill="none"/>
      <ellipse id="ellipse6847"  rx="12.274" transform="scale(1,-1)" ry="7.0866" cy="-279.99" cx="298.46" stroke-width="0.8" fill="#fff"/>
     </g>
     <g id="g6855" transform="translate(122.74 -297.64)" stroke-miterlimit="0">
      <path id="path6857"  d="m460.29 751.18a15.343 8.8583 0 0 0 -9.1816 1.7715h-6.1621v7.0859a15.343 8.8583 0 0 0 15.344 8.8594 15.343 8.8583 0 0 0 15.344 -8.8594v-7.0859h-6.168a15.343 8.8583 0 0 0 -9.1758 -1.7715z" transform="matrix(.8 0 0 -.8 -69.774 882.35)" fill="none"/>
      <ellipse id="ellipse6859"  rx="12.274" transform="scale(1,-1)" ry="7.0866" cy="-279.99" cx="298.46" stroke-width="0.8" fill="#fff"/>
     </g>
     <g id="g6861" transform="translate(98.196 -283.46)" stroke-miterlimit="0">
      <path id="path6863"  d="m460.29 751.18a15.343 8.8583 0 0 0 -9.1816 1.7715h-6.1621v7.0859a15.343 8.8583 0 0 0 15.344 8.8594 15.343 8.8583 0 0 0 15.344 -8.8594v-7.0859h-6.168a15.343 8.8583 0 0 0 -9.1758 -1.7715z" transform="matrix(.8 0 0 -.8 -69.774 882.35)" fill="none"/>
      <ellipse id="ellipse6865"  rx="12.274" ry="7.0866" transform="scale(1,-1)" cy="-279.99" cx="298.46" stroke-width="0.8" fill="#fff"/>
     </g>
     <g id="g6867" transform="translate(147.29 -283.46)" stroke-miterlimit="0">
      <path id="path6869"  d="m460.29 751.18a15.343 8.8583 0 0 0 -9.1816 1.7715h-6.1621v7.0859a15.343 8.8583 0 0 0 15.344 8.8594 15.343 8.8583 0 0 0 15.344 -8.8594v-7.0859h-6.168a15.343 8.8583 0 0 0 -9.1758 -1.7715z" transform="matrix(.8 0 0 -.8 -69.774 882.35)" fill="none"/>
      <ellipse id="ellipse6871"  rx="12.274" ry="7.0866" transform="scale(1,-1)" cy="-279.99" cx="298.46" stroke-width="0.8" fill="#fff"/>
     </g>
     <g id="g6873" transform="translate(122.74 -269.29)" stroke-miterlimit="0">
      <path id="path6875"  d="m460.29 751.18a15.343 8.8583 0 0 0 -9.1816 1.7715h-6.1621v7.0859a15.343 8.8583 0 0 0 15.344 8.8594 15.343 8.8583 0 0 0 15.344 -8.8594v-7.0859h-6.168a15.343 8.8583 0 0 0 -9.1758 -1.7715z" transform="matrix(.8 0 0 -.8 -69.774 882.35)" fill="none"/>
      <ellipse id="ellipse6877"  rx="12.274" transform="scale(1,-1)" ry="7.0866" cy="-279.99" cx="298.46" stroke-width="0.8" fill="#fff"/>
     </g>
     <g id="g6879" transform="translate(171.84 -269.29)" stroke-miterlimit="0">
      <path id="path6881"  d="m460.29 751.18a15.343 8.8583 0 0 0 -9.1816 1.7715h-6.1621v7.0859a15.343 8.8583 0 0 0 15.344 8.8594 15.343 8.8583 0 0 0 15.344 -8.8594v-7.0859h-6.168a15.343 8.8583 0 0 0 -9.1758 -1.7715z" transform="matrix(.8 0 0 -.8 -69.774 882.35)" fill="none"/>
      <ellipse id="ellipse6883"  rx="12.274" transform="scale(1,-1)" ry="7.0866" cy="-279.99" cx="298.46" stroke-width="0.8" fill="#fff"/>
     </g>
     <g id="g6885" transform="translate(147.29 -255.12)" stroke-miterlimit="0">
      <path id="path6887"  d="m460.29 751.18a15.343 8.8583 0 0 0 -9.1816 1.7715h-6.1621v7.0859a15.343 8.8583 0 0 0 15.344 8.8594 15.343 8.8583 0 0 0 15.344 -8.8594v-7.0859h-6.168a15.343 8.8583 0 0 0 -9.1758 -1.7715z" transform="matrix(.8 0 0 -.8 -69.774 882.35)" fill="none"/>
      <ellipse id="ellipse6889"  rx="12.274" ry="7.0866" transform="scale(1,-1)" cy="-279.99" cx="298.46" stroke-width="0.8" fill="#fff"/>
     </g>
     <g id="g6926" transform="translate(196.39 -255.12)" stroke-miterlimit="0">
      <path id="path6928"  d="m460.29 751.18a15.343 8.8583 0 0 0 -9.1816 1.7715h-6.1621v7.0859a15.343 8.8583 0 0 0 15.344 8.8594 15.343 8.8583 0 0 0 15.344 -8.8594v-7.0859h-6.168a15.343 8.8583 0 0 0 -9.1758 -1.7715z" transform="matrix(.8 0 0 -.8 -69.774 882.35)" fill="none"/>
      <ellipse id="ellipse6930"  rx="12.274" transform="scale(1,-1)" ry="7.0866" cy="-279.99" cx="298.46" stroke-width="0.8" fill="#fff"/>
     </g>
     <g id="g6932" transform="translate(220.94 -240.94)" stroke-miterlimit="0">
      <path id="path6934"  d="m460.29 751.18a15.343 8.8583 0 0 0 -9.1816 1.7715h-6.1621v7.0859a15.343 8.8583 0 0 0 15.344 8.8594 15.343 8.8583 0 0 0 15.344 -8.8594v-7.0859h-6.168a15.343 8.8583 0 0 0 -9.1758 -1.7715z" transform="matrix(.8 0 0 -.8 -69.774 882.35)" fill="none"/>
      <ellipse id="ellipse6936"  rx="12.274" ry="7.0866" transform="scale(1,-1)" cy="-279.99" cx="298.46" stroke-width="0.8" fill="#fff"/>
     </g>
     <g id="g6938" transform="translate(171.84 -240.94)" stroke-miterlimit="0">
      <path id="path6940"  d="m460.29 751.18a15.343 8.8583 0 0 0 -9.1816 1.7715h-6.1621v7.0859a15.343 8.8583 0 0 0 15.344 8.8594 15.343 8.8583 0 0 0 15.344 -8.8594v-7.0859h-6.168a15.343 8.8583 0 0 0 -9.1758 -1.7715z" transform="matrix(.8 0 0 -.8 -69.774 882.35)" fill="none"/>
      <ellipse id="ellipse6942"  rx="12.274" ry="7.0866" transform="scale(1,-1)" cy="-279.99" cx="298.46" stroke-width="0.8" fill="#fff"/>
     </g>
     <g id="g6944" transform="translate(196.39 -226.77)" stroke-miterlimit="0">
      <path id="path6946"  d="m460.29 751.18a15.343 8.8583 0 0 0 -9.1816 1.7715h-6.1621v7.0859a15.343 8.8583 0 0 0 15.344 8.8594 15.343 8.8583 0 0 0 15.344 -8.8594v-7.0859h-6.168a15.343 8.8583 0 0 0 -9.1758 -1.7715z" transform="matrix(.8 0 0 -.8 -69.774 882.35)" fill="none"/>
      <ellipse id="ellipse6948"  rx="12.274" transform="scale(1,-1)" ry="7.0866" cy="-279.99" cx="298.46" stroke-width="0.8" fill="#fff"/>
     </g>
     <g id="g6950" transform="translate(147.29 -226.77)" stroke-miterlimit="0">
      <path id="path6952"  d="m460.29 751.18a15.343 8.8583 0 0 0 -9.1816 1.7715h-6.1621v7.0859a15.343 8.8583 0 0 0 15.344 8.8594 15.343 8.8583 0 0 0 15.344 -8.8594v-7.0859h-6.168a15.343 8.8583 0 0 0 -9.1758 -1.7715z" transform="matrix(.8 0 0 -.8 -69.774 882.35)" fill="none"/>
      <ellipse id="ellipse6954"  rx="12.274" transform="scale(1,-1)" ry="7.0866" cy="-279.99" cx="298.46" stroke-width="0.8" fill="#fff"/>
     </g>
     <g id="g6956" transform="translate(171.84 -212.6)" stroke-miterlimit="0">
      <path id="path6958"  d="m460.29 751.18a15.343 8.8583 0 0 0 -9.1816 1.7715h-6.1621v7.0859a15.343 8.8583 0 0 0 15.344 8.8594 15.343 8.8583 0 0 0 15.344 -8.8594v-7.0859h-6.168a15.343 8.8583 0 0 0 -9.1758 -1.7715z" transform="matrix(.8 0 0 -.8 -69.774 882.35)" fill="none"/>
      <ellipse id="ellipse6960"  rx="12.274" ry="7.0866" transform="scale(1,-1)" cy="-279.99" cx="298.46" stroke-width="0.8" fill="#fff"/>
     </g>
     <g id="g6978" transform="translate(49.098 -283.46)" stroke-miterlimit="0">
      <path id="path6980"  d="m460.29 751.18a15.343 8.8583 0 0 0 -9.1816 1.7715h-6.1621v7.0859a15.343 8.8583 0 0 0 15.344 8.8594 15.343 8.8583 0 0 0 15.344 -8.8594v-7.0859h-6.168a15.343 8.8583 0 0 0 -9.1758 -1.7715z" transform="matrix(.8 0 0 -.8 -69.774 882.35)" fill="none"/>
      <ellipse id="ellipse6982"  rx="12.274" transform="scale(1,-1)" ry="7.0866" cy="-279.99" cx="298.46" stroke-width="0.8" fill="#fff"/>
     </g>
     <g id="g6984" transform="translate(24.549 -269.29)" stroke-miterlimit="0">
      <path id="path6986"  d="m460.29 751.18a15.343 8.8583 0 0 0 -9.1816 1.7715h-6.1621v7.0859a15.343 8.8583 0 0 0 15.344 8.8594 15.343 8.8583 0 0 0 15.344 -8.8594v-7.0859h-6.168a15.343 8.8583 0 0 0 -9.1758 -1.7715z" transform="matrix(.8 0 0 -.8 -69.774 882.35)" fill="none"/>
      <ellipse id="ellipse6988"  rx="12.274" ry="7.0866" transform="scale(1,-1)" cy="-279.99" cx="298.46" stroke-width="0.8" fill="#fff"/>
     </g>
     <g id="g6990" transform="translate(73.647 -269.29)" stroke-miterlimit="0">
      <path id="path6992"  d="m460.29 751.18a15.343 8.8583 0 0 0 -9.1816 1.7715h-6.1621v7.0859a15.343 8.8583 0 0 0 15.344 8.8594 15.343 8.8583 0 0 0 15.344 -8.8594v-7.0859h-6.168a15.343 8.8583 0 0 0 -9.1758 -1.7715z" transform="matrix(.8 0 0 -.8 -69.774 882.35)" fill="none"/>
      <ellipse id="ellipse6994"  rx="12.274" ry="7.0866" transform="scale(1,-1)" cy="-279.99" cx="298.46" stroke-width="0.8" fill="#fff"/>
     </g>
     <g id="g6996" transform="translate(49.098 -255.12)" stroke-miterlimit="0">
      <path id="path6998"  d="m460.29 751.18a15.343 8.8583 0 0 0 -9.1816 1.7715h-6.1621v7.0859a15.343 8.8583 0 0 0 15.344 8.8594 15.343 8.8583 0 0 0 15.344 -8.8594v-7.0859h-6.168a15.343 8.8583 0 0 0 -9.1758 -1.7715z" transform="matrix(.8 0 0 -.8 -69.774 882.35)" fill="none"/>
      <ellipse id="ellipse7000"  rx="12.274" transform="scale(1,-1)" ry="7.0866" cy="-279.99" cx="298.46" stroke-width="0.8" fill="#fff"/>
     </g>
    </g>
    <g stroke="#000" fill="#00befe">
     <g id="g7062" stroke-linejoin="round" transform="translate(-24.949 -183.85)">
      <path id="path7064"  d="m322.2 308.27a15.343 8.8583 0 0 0 -9.1797 1.7715h-6.1641v7.0859a15.343 8.8583 0 0 0 0 0.002 15.343 8.8583 0 0 0 15.344 8.8574 15.343 8.8583 0 0 0 15.342 -8.8574 15.343 8.8583 0 0 0 0 -0.002v-7.0859h-6.1699a15.343 8.8583 0 0 0 -9.1719 -1.7715z" transform="matrix(.8 0 0 -.8 40.696 528.02)"/>
      <ellipse id="ellipse7066"  rx="12.274" transform="scale(1,-1)" ry="7.0866" cy="-279.99" cx="298.46" stroke-width="0.8"/>
     </g>
     <g id="g7068" transform="translate(.00065404 -198.42)" stroke-miterlimit="0">
      <path id="path7070"  d="m460.29 751.18a15.343 8.8583 0 0 0 -9.1816 1.7715h-6.1621v7.0859a15.343 8.8583 0 0 0 15.344 8.8594 15.343 8.8583 0 0 0 15.344 -8.8594v-7.0859h-6.168a15.343 8.8583 0 0 0 -9.1758 -1.7715z" transform="matrix(.8 0 0 -.8 -69.774 882.35)"/>
      <ellipse id="ellipse7072"  rx="12.274" transform="scale(1,-1)" ry="7.0866" cy="-279.99" cx="298.46" stroke-width="0.8"/>
     </g>
     <g id="g7074" transform="translate(24.549 -184.25)" stroke-miterlimit="0">
      <path id="path7076"  d="m460.29 751.18a15.343 8.8583 0 0 0 -9.1816 1.7715h-6.1621v7.0859a15.343 8.8583 0 0 0 15.344 8.8594 15.343 8.8583 0 0 0 15.344 -8.8594v-7.0859h-6.168a15.343 8.8583 0 0 0 -9.1758 -1.7715z" transform="matrix(.8 0 0 -.8 -69.774 882.35)"/>
      <ellipse id="ellipse7078"  rx="12.274" ry="7.0866" transform="scale(1,-1)" cy="-279.99" cx="298.46" stroke-width="0.8"/>
     </g>
     <g id="g7080" transform="translate(.00065404 -170.08)" stroke-miterlimit="0">
      <path id="path7082"  d="m460.29 751.18a15.343 8.8583 0 0 0 -9.1816 1.7715h-6.1621v7.0859a15.343 8.8583 0 0 0 15.344 8.8594 15.343 8.8583 0 0 0 15.344 -8.8594v-7.0859h-6.168a15.343 8.8583 0 0 0 -9.1758 -1.7715z" transform="matrix(.8 0 0 -.8 -69.774 882.35)"/>
      <ellipse id="ellipse7084"  rx="12.274" transform="scale(1,-1)" ry="7.0866" cy="-279.99" cx="298.46" stroke-width="0.8"/>
     </g>
    </g>
   </g>
  </g>
 </g>
</svg>
